# AST/ASF file generated using VICON BodyLanguage
# -----------------------------------------------
:version 1.10
:name VICON
:units
  mass 1.0
  length 0.45
  angle deg
:documentation
   .ast/.asf automatically generated from VICON data using
   VICON BodyBuilder and BodyLanguage model FoxedUp or BRILLIANT.MOD
:root
   order TX TY TZ RX RY RZ
   axis XYZ
   position 0 0 0  
   orientation 0 0 0 
:bonedata
  begin
     id 1 
     name lhipjoint
     direction 0.646657 -0.683706 0.338203 
     length 2.4948 
     axis 0 0 0  XYZ
  end
  begin
     id 2 
     name lfemur
     direction 0.34202 -0.939693 0  
     length 6.79491  
     axis 0 0 20  XYZ
    dof rx ry rz
    limits (-160.0 20.0)
           (-70.0 70.0)
           (-60.0 70.0)
  end
  begin
     id 3 
     name ltibia
     direction 0.34202 -0.939693 0   
     length 7.56807   
     axis 0 0 20   XYZ
    dof rx
    limits (-10.0 170.0)
  end
  begin
     id 4 
     name lfoot
     direction 0.0679796 -0.186772 0.980048   
     length 2.53018   
     axis -90 7.62852e-016 20   XYZ
    dof rx rz
    limits (-45.0 90.0)
           (-70.0 20.0)
  end
  begin
     id 5 
     name ltoes
     direction 1.53625e-011 -4.21881e-011 1   
     length 1.26912   
     axis -90 7.62852e-016 20   XYZ
    dof rx
    limits (-90.0 20.0)
  end
  begin
     id 6 
     name rhipjoint
     direction -0.618868 -0.704065 0.348274   
     length 2.42265  
     axis 0 0 0  XYZ 
  end
  begin
     id 7 
     name rfemur
     direction -0.34202 -0.939693 0   
     length 6.73814   
     axis 0 0 -20   XYZ
    dof rx ry rz
    limits (-160.0 20.0)
           (-70.0 70.0)
           (-70.0 60.0)
  end
  begin
     id 8 
     name rtibia
     direction -0.34202 -0.939693 0   
     length 7.66799   
     axis 0 0 -20   XYZ
    dof rx
    limits (-10.0 170.0)
 end
 begin
     id 9 
     name rfoot
     direction -0.0727352 -0.199838 0.977125   
     length 2.57224  
     axis -90 -7.62852e-016 -20   XYZ
    dof rx rz
    limits (-45.0 90.0)
           (-20.0 70.0)
  end
  begin
     id 10 
     name rtoes
     direction -1.53501e-011 -4.21858e-011 1   
     length 1.28858   
     axis -90 -7.62852e-016 -20   XYZ
    dof rx
    limits (-90.0 20.0)
  end
  begin
     id 11 
     name lowerback
     direction -0.0172471 0.995767 -0.0902851   
     length 2.20206   
     axis 0 0 0   XYZ
    dof rx ry rz
    limits (-20.0 45.0)
           (-30.0 30.0)
           (-30.0 30.0)
  end
  begin
     id 12 
     name upperback
     direction -0.000110737 0.999714 0.0239043   
     length 2.19523   
     axis 0 0 0   XYZ
    dof rx ry rz
    limits (-20.0 45.0)
           (-30.0 30.0)
           (-30.0 30.0)
  end
  begin
     id 13 
     name thorax
     direction 0.00704869 0.997783 0.0661741   
     length 2.21977   
     axis 0 0 0   XYZ
    dof rx ry rz
    limits (-20.0 45.0)
           (-30.0 30.0)
           (-30.0 30.0)
  end
  begin
     id 14 
     name lowerneck
     direction -0.00407501 0.995527 0.0943846   
     length 1.83142   
     axis 0 0 0   XYZ
    dof rx ry rz
    limits (-20.0 45.0)
           (-30.0 30.0)
           (-30.0 30.0)
  end
  begin
     id 15 
     name upperneck
     direction 0.0640586 0.986486 -0.150807   
     length 1.84616   
     axis 0 0 0   XYZ
    dof rx ry rz
    limits (-20.0 45.0)
           (-30.0 30.0)
           (-30.0 30.0)
  end
  begin
     id 16
     name head
     direction 0.0188017 0.99791 -0.0618239  
     length 1.85932  
     axis 0 0 0   XYZ
    dof rx ry rz
    limits (-20.0 45.0)
           (-30.0 30.0)
           (-30.0 30.0)
  end
  begin
     id 17 
     name lclavicle
     direction 0.976074 0.206905 0.066852  
     length 3.81043  
     axis 0 0 0   XYZ
    dof ry rz
    limits (-20.0 10.0)
           (0.0 20.0)
  end
  begin
     id 18 
     name lhumerus
     direction 1 -4.48971e-011 1.86916e-027   
     length 5.37587   
     axis 180 -30 -90   XYZ
    dof rx ry rz
    limits (-60.0 90.0)
           (-90.0 90.0)
           (-90.0 90.0)
  end
  begin
     id 19
     name lradius
     direction 1 -4.48968e-011 1.69187e-027   
     length 3.35977   
     axis 180 -30 -90   XYZ
    dof rx
    limits (-10.0 170.0)
  end
  begin
     id 20
     name lwrist
     direction 1 -4.48968e-011 5.8978e-027   
     length 1.67988   
     axis -3.27506e-015 90 90   XYZ
    dof ry
    limits (-180.0 0.0)
 end
  begin
     id 21 
     name lhand
     direction 1 -4.49028e-011 1.18071e-026   
     length 0.561859   
     axis -7.52654e-015 90 90   XYZ
    dof rx rz
    limits (-90.0 90.0)
           (-45.0 45.0)
  end
  begin
     id 22 
     name lfingers
     direction 1 -4.48927e-011 2.35758e-026   
     length 0.452985   
     axis -1.50534e-014 90 90   XYZ
    dof rx
    limits (0.0 90.0)
  end
  begin
     id 23
     name lthumb
     direction 0.707107 -6.34898e-011 0.707107   
     length 0.650399   
     axis -90 45 5.69224e-014   XYZ
    dof rx rz
    limits (-45.0 45.0)
           (-45.0 45.0)
  end
  begin
     id 24 
     name rclavicle
     direction -0.988403 0.151789 0.00439714   
     length 3.6942  
     axis 0 0 0   XYZ 
    dof ry rz
    limits (-10.0 20.0)
           (-20.0 0.0)
  end
  begin
     id 25 
     name rhumerus
     direction -1 -4.48978e-011 1.62495e-027  
     length 5.22819   
     axis 180 30 90   XYZ
    dof rx ry rz
    limits (-90.0 60.0)
           (-90.0 90.0)
           (-90.0 90.0)
  end
  begin
     id 26 
     name rradius
     direction -1 -4.48961e-011 3.47796e-027   
     length 3.40764   
     axis 180 30 90   XYZ
    dof rx
    limits (-10.0 170.0)
  end
  begin
     id 27 
     name rwrist
     direction -1 -4.48949e-011 5.89602e-027   
     length 1.70382   
     axis -3.27506e-015 -90 -90   XYZ
    dof ry
    limits (-180.0 0.0)
  end
  begin
     id 28
     name rhand
     direction -1 -4.48977e-011 1.17973e-026   
     length 0.583255   
     axis -7.52654e-015 -90 -90   XYZ
    dof rx rz
    limits (-90.0 90.0)
           (-45.0 45.0)
  end
  begin
     id 29
     name rfingers
     direction -1 -4.49099e-011 2.36408e-026   
     length 0.470235   
     axis -1.50534e-014 -90 -90   XYZ
    dof rx
    limits (0.0 90.0)
  end
  begin
     id 30
     name rthumb
     direction -0.707107 -6.35011e-011 0.707107   
     length 0.675167   
     axis -90 -45 -5.69224e-014   XYZ
    dof rx rz
    limits (-45.0 45.0)
           (-45.0 45.0)
  end
:hierarchy
  begin
    root lhipjoint rhipjoint lowerback
    lhipjoint lfemur
    lfemur ltibia
    ltibia lfoot
    lfoot ltoes
    rhipjoint rfemur
    rfemur rtibia
    rtibia rfoot
    rfoot rtoes
    lowerback upperback
    upperback thorax
    thorax lowerneck lclavicle rclavicle
    lowerneck upperneck
    upperneck head
    lclavicle lhumerus
    lhumerus lradius
    lradius lwrist
    lwrist lhand lthumb
    lhand lfingers
    rclavicle rhumerus
    rhumerus rradius
    rradius rwrist
    rwrist rhand rthumb
    rhand rfingers
  end

#!OML:ASF G:\JayActor3\Patient Classification 1\Patient 1\Session 2\male.ASF
:FULLY-SPECIFIED
:DEGREES
1327
root 39.7986 16.4154 -6.16861 1631.65 83.9607 -163.386
lowerback 0.247571 0.572157 -1.22168
upperback 1.97645 0.825897 -1.49758
thorax 1.89147 0.418359 -0.838221
lowerneck -11.2018 -4.92045 -5.01289
upperneck 8.04604 -6.78117 9.23436
head 4.74102 -2.91566 3.16308
rclavicle -1.11444e-014 4.77083e-015
rhumerus -29.2865 10.5035 -94.2649
rradius 24.1682
rwrist -0.19209
rhand -23.8826 2.93305
rfingers 7.12502
rthumb 2.59074 -27.031
lclavicle -1.11444e-014 4.77083e-015
lhumerus -38.0593 5.32431 85.0348
lradius 38.7818
lwrist 18.5872
lhand -26.2582 18.9008
lfingers 7.12502
lthumb 0.296384 48.8804
rfemur -10.3553 -3.48721 18.3664
rtibia 70.9239
rfoot -10.309 -4.65391
rtoes 4.60254
lfemur -16.5888 6.55889 -24.3724
ltibia 31.6405
lfoot -8.56454 9.38335
ltoes 2.77032
1328
root 39.9512 16.4281 -6.18194 1629.71 83.1544 -165.257
lowerback 0.24216 0.386372 -1.38317
upperback 2.02606 0.579074 -1.40678
thorax 1.94152 0.291206 -0.657942
lowerneck -11.2019 -4.99972 -5.1343
upperneck 8.06586 -6.87385 9.25175
head 4.75858 -2.96373 3.18009
rclavicle -1.13432e-014 1.51076e-014
rhumerus -29.4214 8.07806 -92.9805
rradius 22.2428
rwrist 1.77113
rhand -23.9504 3.12452
rfingers 7.12502
rthumb 2.52528 -26.8403
lclavicle -1.13432e-014 1.51076e-014
lhumerus -37.4274 4.23734 85.8638
lradius 41.096
lwrist 19.29
lhand -26.2508 18.7779
lfingers 7.12502
lthumb 0.303534 48.7575
rfemur -11.4842 -3.1383 18.4627
rtibia 70.3839
rfoot -11.8104 -4.21264
rtoes 3.00112
lfemur -15.9172 5.98128 -24.398
ltibia 31.6083
lfoot -8.95251 9.13912
ltoes 2.61704
1329
root 40.1024 16.4378 -6.19405 1627.95 82.3007 -166.957
lowerback 0.250844 0.197356 -1.58111
upperback 2.07597 0.328134 -1.31482
thorax 1.98606 0.161304 -0.456446
lowerneck -11.1917 -5.08733 -5.26626
upperneck 8.04632 -6.97475 9.27965
head 4.76389 -3.01659 3.20167
rclavicle 1.42566e-014 -3.18055e-015
rhumerus -29.6461 5.59604 -91.5815
rradius 20.5007
rwrist 3.69386
rhand -24.0449 3.29263
rfingers 7.12502
rthumb 2.43404 -26.6732
lclavicle 1.42566e-014 -3.18055e-015
lhumerus -36.8202 3.13654 86.6383
lradius 43.414
lwrist 19.9407
lhand -26.1768 18.5335
lfingers 7.12502
lthumb 0.374967 48.5129
rfemur -12.5735 -2.77081 18.5232
rtibia 69.6806
rfoot -13.2083 -3.92791
rtoes 1.82711
lfemur -15.2814 5.38351 -24.4457
ltibia 31.6092
lfoot -9.3313 8.88128
ltoes 2.41122
1330
root 40.2521 16.4444 -6.20518 1626.44 81.412 -168.423
lowerback 0.267672 0.00987708 -1.79737
upperback 2.12446 0.0792566 -1.22173
thorax 2.02715 0.0319882 -0.243696
lowerneck -11.1734 -5.18439 -5.40637
upperneck 7.98862 -7.08519 9.31194
head 4.75749 -3.07512 3.22538
rclavicle -7.24322e-015 3.33958e-014
rhumerus -29.9707 3.12689 -90.0961
rradius 18.9542
rwrist 5.5223
rhand -24.1295 3.4283
rfingers 7.12502
rthumb 2.35234 -26.5385
lclavicle -7.24322e-015 3.33958e-014
lhumerus -36.2442 2.00812 87.3621
lradius 45.7515
lwrist 20.5614
lhand -26.0424 18.1988
lfingers 7.12502
lthumb 0.504785 48.1779
rfemur -13.6335 -2.37105 18.5541
rtibia 68.8355
rfoot -14.4794 -3.77192
rtoes 1.06646
lfemur -14.6965 4.79207 -24.5005
ltibia 31.6586
lfoot -9.71756 8.58778
ltoes 2.24468
1331
root 40.4003 16.4476 -6.2158 1625.19 80.4995 -169.637
lowerback 0.290791 -0.173022 -2.01334
upperback 2.16678 -0.163853 -1.12901
thorax 2.06106 -0.0945469 -0.0315137
lowerneck -11.1424 -5.28755 -5.54569
upperneck 7.89942 -7.20246 9.34712
head 4.74012 -3.13772 3.24963
rclavicle 1.82074e-014 4.69132e-014
rhumerus -30.4068 0.727899 -88.5532
rradius 17.6049
rwrist 7.23409
rhand -24.1717 3.53467
rfingers 7.12502
rthumb 2.31152 -26.4325
lclavicle 1.82074e-014 4.69132e-014
lhumerus -35.6929 0.869347 88.028
lradius 48.0855
lwrist 21.1591
lhand -25.8491 17.8023
lfingers 7.12502
lthumb 0.691456 47.7809
rfemur -14.6664 -1.93494 18.5555
rtibia 67.8678
rfoot -15.6196 -3.69446
rtoes 0.641585
lfemur -14.17 4.22582 -24.5496
ltibia 31.7673
lfoot -10.1177 8.2455
ltoes 2.11728
